<svg width="20" height="20" viewBox="0 0 20 20" fill="none" xmlns="http://www.w3.org/2000/svg">
<g clip-path="url(#clip0_1153_2864)">
<path d="M10 20C4.5 20 0 15.5 0 10C0 4.5 4.5 0 10 0C15.5 0 20 4.5 20 10C20 15.5 15.5 20 10 20ZM10 1.66667C5.41667 1.66667 1.66667 5.41667 1.66667 10C1.66667 14.5833 5.41667 18.3333 10 18.3333C14.5833 18.3333 18.3333 14.5833 18.3333 10C18.3333 5.41667 14.5833 1.66667 10 1.66667Z" fill="#F5222D"/>
<path d="M6.66683 14.1666C6.41683 14.1666 6.25016 14.0833 6.0835 13.9166C5.75016 13.5833 5.75016 13.0833 6.0835 12.7499L12.7502 6.08325C13.0835 5.74992 13.5835 5.74992 13.9168 6.08325C14.2502 6.41659 14.2502 6.91658 13.9168 7.24992L7.25016 13.9166C7.0835 14.0833 6.91683 14.1666 6.66683 14.1666Z" fill="#F5222D"/>
<path d="M13.3335 14.1666C13.0835 14.1666 12.9168 14.0833 12.7502 13.9166L6.0835 7.24992C5.75016 6.91658 5.75016 6.41659 6.0835 6.08325C6.41683 5.74992 6.91683 5.74992 7.25016 6.08325L13.9168 12.7499C14.2502 13.0833 14.2502 13.5833 13.9168 13.9166C13.7502 14.0833 13.5835 14.1666 13.3335 14.1666Z" fill="#F5222D"/>
</g>
<defs>
<clipPath id="clip0_1153_2864">
<rect width="20" height="20" fill="white"/>
</clipPath>
</defs>
</svg>
