<svg width="20" height="20" viewBox="0 0 20 20" fill="none" xmlns="http://www.w3.org/2000/svg">
<path d="M17.3168 14.404C16.7301 13.8169 16.0446 13.3377 15.2918 12.9883C16.3535 12.1282 17.0308 10.8157 17.0308 9.34381C17.0308 6.74694 14.8652 4.61647 12.2683 4.65631C9.71129 4.69616 7.65113 6.77975 7.65113 9.34381C7.65113 10.8157 8.33082 12.1282 9.3902 12.9883C8.63716 13.3374 7.95165 13.8166 7.3652 14.404C6.08551 15.686 5.35895 17.3782 5.31207 19.1829C5.31145 19.2079 5.31583 19.2328 5.32498 19.2561C5.33412 19.2794 5.34783 19.3006 5.3653 19.3185C5.38278 19.3364 5.40366 19.3506 5.42672 19.3604C5.44978 19.3701 5.47455 19.3751 5.49957 19.3751H6.81207C6.91285 19.3751 6.99723 19.2954 6.99957 19.1946C7.0441 17.8352 7.59488 16.5626 8.56285 15.5969C9.05818 15.099 9.64735 14.7042 10.2963 14.4355C10.9452 14.1667 11.641 14.0294 12.3433 14.0313C13.7707 14.0313 15.1136 14.5868 16.1238 15.5969C17.0894 16.5626 17.6402 17.8352 17.6871 19.1946C17.6894 19.2954 17.7738 19.3751 17.8746 19.3751H19.1871C19.2121 19.3751 19.2369 19.3701 19.2599 19.3604C19.283 19.3506 19.3039 19.3364 19.3213 19.3185C19.3388 19.3006 19.3525 19.2794 19.3617 19.2561C19.3708 19.2328 19.3752 19.2079 19.3746 19.1829C19.3277 17.3782 18.6011 15.686 17.3168 14.404ZM12.3433 12.3438C11.5418 12.3438 10.7871 12.0321 10.2222 11.4649C9.93876 11.1837 9.71484 10.8482 9.56384 10.4786C9.41283 10.1089 9.33784 9.71262 9.34332 9.31334C9.35035 8.54459 9.65738 7.80162 10.1941 7.25084C10.7566 6.67428 11.5089 6.35319 12.3129 6.34381C13.1074 6.33678 13.8785 6.64616 14.4457 7.20162C15.0269 7.77116 15.3457 8.53287 15.3457 9.34381C15.3457 10.1454 15.0339 10.8977 14.4668 11.4649C14.1885 11.7445 13.8575 11.9661 13.4931 12.117C13.1286 12.2679 12.7378 12.345 12.3433 12.3438ZM6.47223 9.96256C6.45113 9.75866 6.43941 9.55241 6.43941 9.34381C6.43941 8.97116 6.47457 8.60787 6.5402 8.25397C6.5566 8.16959 6.51207 8.08287 6.43473 8.04772C6.11598 7.90475 5.82301 7.70787 5.56988 7.45944C5.27162 7.17024 5.03691 6.82203 4.88074 6.43705C4.72457 6.05207 4.65036 5.63876 4.66285 5.2235C4.68395 4.47116 4.98629 3.75631 5.51363 3.21725C6.09254 2.62428 6.87066 2.30084 7.69801 2.31022C8.44566 2.31725 9.16754 2.60553 9.71363 3.11647C9.89879 3.28991 10.0582 3.48209 10.1918 3.68834C10.2386 3.761 10.33 3.79147 10.4097 3.76334C10.8222 3.62037 11.2582 3.51959 11.7058 3.47272C11.8371 3.45866 11.9121 3.31803 11.8535 3.20084C11.0918 1.69381 9.53551 0.653187 7.73551 0.625062C5.13629 0.585218 2.97066 2.71569 2.97066 5.31022C2.97066 6.78209 3.64801 8.09459 4.70973 8.95475C3.96441 9.29928 3.2777 9.77506 2.68238 10.3704C1.39801 11.6524 0.671445 13.3446 0.62457 15.1516C0.623945 15.1766 0.628332 15.2015 0.637475 15.2248C0.646617 15.2481 0.660329 15.2693 0.677803 15.2872C0.695276 15.3052 0.716158 15.3194 0.739218 15.3291C0.762277 15.3388 0.787048 15.3438 0.81207 15.3438H2.12691C2.2277 15.3438 2.31207 15.2641 2.31441 15.1633C2.35895 13.804 2.90973 12.5313 3.8777 11.5657C4.56676 10.8766 5.41051 10.3985 6.3316 10.1665C6.42301 10.143 6.48395 10.0563 6.47223 9.96256Z" fill="black" fill-opacity="0.45"/>
</svg>
