<svg width="18" height="22" viewBox="0 0 18 22" fill="none" xmlns="http://www.w3.org/2000/svg">
<path d="M13.125 5.1875C13.125 5.08437 13.0406 5 12.9375 5H3.9375C3.83438 5 3.75 5.08437 3.75 5.1875V6.3125C3.75 6.41563 3.83438 6.5 3.9375 6.5H12.9375C13.0406 6.5 13.125 6.41563 13.125 6.3125V5.1875ZM12.9375 8.375H3.9375C3.83438 8.375 3.75 8.45937 3.75 8.5625V9.6875C3.75 9.79062 3.83438 9.875 3.9375 9.875H12.9375C13.0406 9.875 13.125 9.79062 13.125 9.6875V8.5625C13.125 8.45937 13.0406 8.375 12.9375 8.375ZM8.25 11.75H3.9375C3.83438 11.75 3.75 11.8344 3.75 11.9375V13.0625C3.75 13.1656 3.83438 13.25 3.9375 13.25H8.25C8.35313 13.25 8.4375 13.1656 8.4375 13.0625V11.9375C8.4375 11.8344 8.35313 11.75 8.25 11.75ZM7.125 18.9688H1.875V2.46875H15V10.5312C15 10.6344 15.0844 10.7188 15.1875 10.7188H16.5C16.6031 10.7188 16.6875 10.6344 16.6875 10.5312V1.53125C16.6875 1.11641 16.3523 0.78125 15.9375 0.78125H0.9375C0.522656 0.78125 0.1875 1.11641 0.1875 1.53125V19.9062C0.1875 20.3211 0.522656 20.6562 0.9375 20.6562H7.125C7.22813 20.6562 7.3125 20.5719 7.3125 20.4688V19.1562C7.3125 19.0531 7.22813 18.9688 7.125 18.9688ZM15.4875 17.225C16.1672 16.6086 16.5938 15.718 16.5938 14.7266C16.5938 12.8633 15.082 11.3516 13.2188 11.3516C11.3555 11.3516 9.84375 12.8633 9.84375 14.7266C9.84375 15.718 10.2703 16.6086 10.95 17.225C9.61406 17.9867 8.69531 19.3977 8.625 21.0242C8.62031 21.1297 8.70703 21.2188 8.8125 21.2188H9.93984C10.0383 21.2188 10.1203 21.1414 10.1273 21.0406C10.2188 19.4188 11.5711 18.125 13.2188 18.125C14.8664 18.125 16.2188 19.4188 16.3102 21.0406C16.3148 21.1391 16.3969 21.2188 16.4977 21.2188H17.625C17.7328 21.2188 17.8172 21.1297 17.8125 21.0242C17.7445 19.3953 16.8234 17.9867 15.4875 17.225ZM13.2188 12.8516C14.2547 12.8516 15.0938 13.6906 15.0938 14.7266C15.0938 15.7625 14.2547 16.6016 13.2188 16.6016C12.1828 16.6016 11.3438 15.7625 11.3438 14.7266C11.3438 13.6906 12.1828 12.8516 13.2188 12.8516Z" fill="black" fill-opacity="0.45"/>
</svg>
