<svg width="22" height="22" viewBox="0 0 22 22" fill="none" xmlns="http://www.w3.org/2000/svg">
<path d="M11 0.5C5.20156 0.5 0.5 5.20156 0.5 11C0.5 16.7984 5.20156 21.5 11 21.5C16.7984 21.5 21.5 16.7984 21.5 11C21.5 5.20156 16.7984 0.5 11 0.5ZM11 19.7188C6.18594 19.7188 2.28125 15.8141 2.28125 11C2.28125 6.18594 6.18594 2.28125 11 2.28125C15.8141 2.28125 19.7188 6.18594 19.7188 11C19.7188 15.8141 15.8141 19.7188 11 19.7188ZM12.118 10.4562L11.5227 10.318V7.17031C12.4133 7.29219 12.9641 7.85 13.0578 8.53437C13.0695 8.62812 13.1492 8.69609 13.243 8.69609H14.2953C14.4055 8.69609 14.4922 8.6 14.4828 8.48984C14.3398 7.02969 13.1375 6.09219 11.532 5.93047V5.16406C11.532 5.06094 11.4477 4.97656 11.3445 4.97656H10.6859C10.5828 4.97656 10.4984 5.06094 10.4984 5.16406V5.9375C8.83906 6.09922 7.54062 7.01562 7.54062 8.72656C7.54062 10.3109 8.70781 11.075 9.93359 11.368L10.5125 11.5156V14.8602C9.47656 14.7219 8.89531 14.1688 8.77578 13.4234C8.76172 13.3344 8.68203 13.2687 8.59063 13.2687H7.50781C7.39766 13.2687 7.31094 13.3625 7.32031 13.4727C7.42578 14.7617 8.40313 15.9477 10.4891 16.1V16.8359C10.4891 16.9391 10.5734 17.0234 10.6766 17.0234H11.3422C11.4453 17.0234 11.5297 16.9391 11.5297 16.8336L11.525 16.0906C13.3602 15.9289 14.6727 14.9469 14.6727 13.1844C14.6703 11.5578 13.6367 10.8312 12.118 10.4562ZM10.5102 10.0766C10.3789 10.0391 10.2688 10.0039 10.1586 9.95938C9.36641 9.67344 8.99844 9.21172 8.99844 8.61641C8.99844 7.76562 9.64297 7.28047 10.5102 7.17031V10.0766ZM11.5227 14.8672V11.7336C11.5953 11.7547 11.6609 11.7711 11.7289 11.7852C12.8375 12.1227 13.2102 12.5914 13.2102 13.3109C13.2102 14.2273 12.5211 14.7781 11.5227 14.8672Z" fill="black" fill-opacity="0.45"/>
</svg>
