<svg width="20" height="20" viewBox="0 0 20 20" fill="none" xmlns="http://www.w3.org/2000/svg">
<g clip-path="url(#clip0_1153_2890)">
<path d="M10 20C4.5 20 0 15.5 0 10C0 4.5 4.5 0 10 0C15.5 0 20 4.5 20 10C20 15.5 15.5 20 10 20ZM10 1.66667C5.41667 1.66667 1.66667 5.41667 1.66667 10C1.66667 14.5833 5.41667 18.3333 10 18.3333C14.5833 18.3333 18.3333 14.5833 18.3333 10C18.3333 5.41667 14.5833 1.66667 10 1.66667Z" fill="#52C41A"/>
<path d="M9.16683 13.3334C8.91683 13.3334 8.75016 13.2501 8.5835 13.0834L6.0835 10.5834C5.75016 10.2501 5.75016 9.75008 6.0835 9.41675C6.41683 9.08341 6.91683 9.08341 7.25016 9.41675L9.75016 11.9167C10.0835 12.2501 10.0835 12.7501 9.75016 13.0834C9.5835 13.2501 9.41683 13.3334 9.16683 13.3334Z" fill="#52C41A"/>
<path d="M9.16683 13.3334C8.91683 13.3334 8.75016 13.2501 8.5835 13.0834C8.25016 12.7501 8.25016 12.2501 8.5835 11.9167L13.5835 6.91675C13.9168 6.58341 14.4168 6.58341 14.7502 6.91675C15.0835 7.25008 15.0835 7.75008 14.7502 8.08341L9.75016 13.0834C9.5835 13.2501 9.41683 13.3334 9.16683 13.3334Z" fill="#52C41A"/>
</g>
<defs>
<clipPath id="clip0_1153_2890">
<rect width="20" height="20" fill="white"/>
</clipPath>
</defs>
</svg>
